<svg width="900" height="640" viewBox="0 0 900 640" fill="none" xmlns="http://www.w3.org/2000/svg">
<g clip-path="url(#clip0_1884_2875)">
<path d="M732.835 416.909L718.852 375.891L695.504 383.846L647.813 243.912L594.645 262.027L594.805 262.503L577.656 336.527L553.257 441.835L567.49 473.261L617.695 456.153L635.97 449.923L656.315 442.987L672.926 491.738L726.095 473.623L709.483 424.873L732.835 416.909ZM636.159 404.073L624.098 408.183L601 416.056L616.765 337.781L618.248 331.287L642.333 401.967L636.159 404.073Z" fill="#338660"/>
<path opacity="0.25" d="M709.484 424.871L726.096 473.622L692.23 459.135L638.104 264.116L618.248 331.288L609.054 369.334L577.658 336.524L594.807 262.501L594.647 262.025L647.814 243.912L695.502 383.848L718.851 375.891L732.835 416.909L709.484 424.871Z" fill="#010101"/>
<path opacity="0.25" d="M635.97 449.922L617.694 456.152L620.38 418.489V411.623L624.098 408.183L626.49 405.974L636.157 404.073C636.159 404.073 635.559 431.737 635.97 449.922Z" fill="#010101"/>
<path d="M636.162 404.071C636.162 404.071 631.593 398.335 623.619 398.998C615.644 399.661 611.195 402.652 610.927 410.958C610.66 419.266 612.641 461.129 610.821 477.742C609.001 494.356 620.327 496.017 620.976 483.723C621.627 471.43 616.814 432.888 620.381 426.576C623.952 420.264 621.779 433.553 625.523 437.873C629.268 442.192 633.254 434.55 629.268 424.251C625.28 413.95 636.162 404.071 636.162 404.071Z" fill="url(#paint0_linear_1884_2875)"/>
<path d="M149.273 342.049C147.907 342.049 146.896 341.974 146.459 341.792C145.95 341.577 144.396 340.929 130.828 316.711L133.267 315.345C138.334 324.389 146.018 337.552 147.645 339.235C149.122 339.474 157.236 338.908 164.426 338.186L164.708 340.969C160.18 341.422 153.234 342.049 149.273 342.049Z" fill="#D1D5DB"/>
<path d="M198.455 353.793V354.603C198.455 354.603 197.714 369.976 186.205 369.313C186.177 369.313 186.149 369.305 186.12 369.305C179.003 368.844 170.194 365.523 164.288 363.057C160.576 361.504 158.003 360.287 157.717 360.336C156.969 360.455 166.433 399.83 166.307 402.073C166.294 402.374 166.224 402.695 166.119 403.025C165.448 405.157 163.106 407.715 161.701 407.926C161.554 407.947 161.254 407.674 160.828 407.141C156.549 401.822 139.61 370.922 139.148 360.832C138.652 349.745 144.257 343.067 151.858 341.794C157.464 340.858 173.859 343.116 182.072 344.367C184.989 344.814 186.868 345.129 186.868 345.129L198.455 353.793Z" fill="#0A2533"/>
<path opacity="0.25" d="M166.309 402.073C166.295 402.374 166.225 402.695 166.12 403.025C165.45 405.157 163.108 407.715 161.703 407.926C161.555 407.948 161.256 407.674 160.83 407.142C166.856 398.633 151.103 357.211 154.53 357.093C156.221 357.036 159.961 359.91 164.289 363.057C160.577 361.504 158.004 360.288 157.718 360.336C156.969 360.455 166.435 399.829 166.309 402.073Z" fill="#010101"/>
<path opacity="0.25" d="M198.455 353.793V354.603C198.455 354.603 197.714 369.976 186.205 369.313C188.47 367.503 188.89 364.314 188.721 360.455C188.526 355.987 184.393 348.339 182.072 344.369C184.989 344.816 186.869 345.131 186.869 345.131L198.455 353.793Z" fill="#010101"/>
<path d="M173.964 303.315C173.581 303.917 173.328 304.421 173.328 304.804C173.328 304.804 173.315 304.781 173.287 304.734C173.154 304.497 172.671 303.665 172.051 302.699C171.002 301.078 169.554 299.063 168.68 298.818C167.275 298.434 163.535 303.158 158.48 303.537C158.144 303.567 157.81 303.572 157.466 303.56C151.902 303.307 146 295.415 150.74 286.116C152.398 289.521 155.802 289.604 155.802 289.604C155.802 289.604 153.725 289.186 153.649 286.612C159.709 287.688 162.865 283.123 168.1 284.787C173.328 286.443 173.001 289.603 173.001 289.603C173.001 289.603 176.986 288.023 178.23 293.008C179.229 296.995 175.503 300.924 173.964 303.315Z" fill="#0A2533"/>
<path d="M173.287 304.735C172.932 305.993 172.252 307.364 171.336 308.475C170.226 309.833 168.757 310.824 167.1 310.783C163.563 310.699 160.045 305.952 158.48 303.538C163.535 303.161 167.275 298.436 168.68 298.82C169.554 299.065 171 301.078 172.051 302.7C172.67 303.666 173.154 304.498 173.287 304.735Z" fill="url(#paint1_linear_1884_2875)"/>
<path d="M178.397 305.216C178.397 305.216 175.74 311.285 174.741 309.956C174.202 309.237 172.65 308.762 171.336 308.473C172.253 307.363 172.931 305.991 173.287 304.734C173.316 304.781 173.328 304.804 173.328 304.804C173.328 304.419 173.58 303.916 173.964 303.315C175.893 304.77 178.397 305.216 178.397 305.216Z" fill="url(#paint2_linear_1884_2875)"/>
<path d="M197.084 356.471C192.848 355.849 181.389 343.39 181.389 338.028C181.389 337.272 181.306 336.432 181.166 335.518C180.285 329.939 177.063 321.759 175.72 315.978C174.161 309.252 176.404 306.735 176.404 306.735C181.62 297.766 193.424 315.544 200.156 329.799L200.164 329.807C202.428 334.609 203.926 339.069 204.064 342.056C204.546 352.149 201.321 357.093 197.084 356.471Z" fill="#80B49C"/>
<path opacity="0.25" d="M197.085 356.471C192.848 355.849 181.39 343.39 181.39 338.028C181.39 337.272 181.306 336.433 181.166 335.519L181.139 333.128L185.29 311.37C185.29 311.37 191.023 318.187 191.939 330.394C192.848 342.601 206.288 345.257 200.163 329.807C202.427 334.609 203.925 339.069 204.063 342.056C204.547 352.149 201.321 357.093 197.085 356.471Z" fill="#010101"/>
<path d="M188.198 329.561C188.087 329.656 187.891 329.734 187.632 329.805C185.668 330.348 179.942 330.266 177.558 329.798C177.202 329.728 176.914 329.644 176.733 329.561C175.161 328.812 176.733 326.981 176.238 323.744C175.74 320.5 174.495 311.034 179.313 308.125C184.352 305.084 188.029 316.597 188.198 322.331C188.367 328.066 189.282 328.645 188.198 329.561Z" fill="#80B49C"/>
<path d="M187.632 329.805C187.632 329.805 187.403 343.808 184.731 350.415C184.731 350.423 184.731 350.423 184.731 350.429C183.899 352.485 182.83 353.82 181.452 353.793C175.657 353.667 162.64 339.901 161.452 339.398C160.271 338.901 154.349 339.775 154.538 338.901C154.726 338.028 157.033 336.096 159.521 335.167C162.018 334.232 161.577 334.79 177.587 342.146C177.369 340.733 177.46 334.623 177.53 331.162C177.538 330.637 177.553 330.176 177.559 329.799C179.944 330.266 185.668 330.35 187.632 329.805Z" fill="url(#paint3_linear_1884_2875)"/>
<path d="M171.084 411.539C171.49 414.035 154.725 431.1 155.597 426.618C156.464 422.131 161.701 407.925 161.701 407.925C163.107 407.713 165.448 405.157 166.119 403.023C167.491 405.4 170.742 409.47 171.084 411.539Z" fill="#80B49C"/>
<path opacity="0.25" d="M186.205 359.129C186.205 359.129 159.294 354.075 153.977 356.519C148.661 358.961 163.704 401.491 163.704 401.491" stroke="white" stroke-width="0.4597" stroke-miterlimit="10"/>
<path opacity="0.25" d="M184.73 350.415C185.241 347.604 185.626 339.431 184.213 336.201C183.263 334.019 179.726 332.146 177.528 331.162C177.536 330.637 177.551 330.176 177.557 329.799C179.942 330.268 185.667 330.35 187.632 329.807C187.632 329.805 187.402 343.808 184.73 350.415Z" fill="#010101"/>
<path d="M619.661 255.705C619.117 257.802 618.208 260.502 616.795 264.115C614.781 269.296 611.74 276.356 607.259 286.2C607.148 291.2 605.554 323.085 605.12 330.426C605.064 331.322 605.029 331.852 605.016 331.922C604.953 332.243 603.799 332.859 602.541 333.174C601.352 333.481 600.081 333.522 599.534 332.795C598.408 331.3 590.809 301.145 590.44 294.045C590.063 286.942 589.692 288.563 598.408 260.284C596.29 261.277 582.56 260.906 582.56 260.906C582.56 260.906 585.076 295.54 585.09 295.791C585.09 295.826 585.069 295.909 585.02 296.028C584.86 296.504 584.355 297.561 583.811 298.091C583.566 298.335 583.314 298.475 583.083 298.405C582.95 298.371 582.628 298.076 582.161 297.58C579.526 294.782 572.296 285.374 568.381 276.6C563.773 266.259 562.646 259.029 567.011 251.808C571.373 244.58 593.464 244.026 593.464 244.026C594.863 244.417 598.078 244.802 601.259 245.558C602.196 245.775 603.133 246.034 604.015 246.327C608.854 247.935 618.074 249.975 620.06 248.83C620.501 250.372 620.598 252.176 619.661 255.705Z" fill="#0D7042"/>
<path d="M637.972 231.628C637.097 232.124 626.947 231.747 620.087 229.131C620.122 230.34 620.276 232.243 620.45 234.404C620.724 237.808 621.039 241.857 620.961 244.807C620.919 246.911 620.676 248.462 620.087 248.82C620.079 248.827 620.073 248.833 620.058 248.833C619.004 249.442 615.913 249.148 612.515 248.505C610.32 248.085 607.999 247.52 606.021 246.952C605.3 246.742 604.623 246.534 604.015 246.33C600.128 245.03 595.277 244.533 593.464 244.03C593.01 243.903 592.751 243.785 592.736 243.645C592.681 242.959 594.421 241.408 595.239 239.785C595.336 239.583 595.469 239.282 595.616 238.897C596.281 237.199 597.322 233.982 597.826 231.934C598.125 230.725 598.238 229.928 597.973 230.067C597.163 230.5 592.365 239.471 591.805 239.471C591.611 239.471 590.645 238.919 589.498 238.141C587.569 236.834 585.143 234.912 585.087 233.996C585.073 233.87 585.108 233.765 585.199 233.681C586.325 232.618 594.917 218.167 598.034 215.085C599.495 213.629 601.223 212.757 602.628 212.24C604.2 211.653 605.39 211.519 605.39 211.519C607.242 211.455 609.108 211.701 610.926 212.162C617.106 213.707 622.777 217.609 626.007 219.537C630.18 222.027 633.046 221.342 634.102 221.964C635.168 222.595 638.837 231.125 637.972 231.628Z" fill="#D1D5DB"/>
<path d="M620.962 244.807C615.215 244.877 602.441 244.366 595.618 238.899C596.283 237.2 597.324 233.984 597.828 231.936C597.828 231.936 611.313 236.025 620.451 234.404C620.725 237.808 621.04 241.857 620.962 244.807Z" fill="#F69181"/>
<path opacity="0.25" d="M610.929 212.165C610.707 214.556 609.86 217.129 607.258 216.926C603.589 216.64 602.798 213.64 602.631 212.243C604.203 211.656 605.392 211.522 605.392 211.522C607.245 211.458 609.111 211.703 610.929 212.165Z" fill="#010101"/>
<path d="M609.377 206.955C609.377 206.955 608.755 204.403 607.503 203.09C606.49 204.74 602.582 205.585 599.568 205.803C598.142 205.907 596.912 205.872 596.29 205.711C594.171 197.483 600.777 193.874 604.456 193.623C608.125 193.371 611.433 196.105 610.433 200.279C613.732 203.531 609.377 206.955 609.377 206.955Z" fill="#321212"/>
<path d="M609.377 206.955C609.189 207.501 608.895 208.459 608.392 209.353H608.384C607.56 210.842 606.176 212.163 603.778 211.192C603.694 211.157 603.611 211.122 603.533 211.081C601.514 210.164 600.464 208.381 599.934 206.976C599.767 206.535 599.648 206.131 599.57 205.802C602.583 205.585 606.493 204.739 607.505 203.089C607.562 203.153 607.618 203.216 607.673 203.278C608.812 204.634 609.377 206.955 609.377 206.955Z" fill="url(#paint4_linear_1884_2875)"/>
<path d="M609.062 213.31C608.692 215.617 604.889 215.492 604.476 213.996C604.258 213.22 604.013 212.472 603.825 211.926C603.657 211.417 603.531 211.087 603.531 211.087V211.081C603.609 211.122 603.692 211.157 603.776 211.192C606.174 212.164 607.558 210.844 608.382 209.353H608.39C608.131 209.87 608.823 210.521 609.054 211.744C609.14 212.185 609.161 212.703 609.062 213.31Z" fill="url(#paint5_linear_1884_2875)"/>
<path d="M589.313 304.638C588.942 307.505 574.114 318.718 574.366 316.726C574.61 314.732 582.162 297.584 582.162 297.584C582.63 298.079 582.952 298.374 583.083 298.408C583.831 298.625 584.782 296.723 585.019 296.031C587.013 298.534 589.648 302.079 589.313 304.638Z" fill="#262166"/>
<path d="M599.532 356.142C596.043 348.661 599.532 332.797 599.532 332.797C600.651 334.293 604.888 332.546 605.012 331.924C605.028 331.854 605.061 331.322 605.117 330.427C605.117 330.427 605.677 338.028 606.342 344.467C607.006 350.905 603.022 363.615 599.532 356.142Z" fill="#262166"/>
<path opacity="0.25" d="M598.407 260.286C596.289 261.279 582.558 260.908 582.558 260.908C582.558 260.908 585.075 295.541 585.089 295.792C585.089 295.827 585.067 295.911 585.019 296.03C584.859 296.506 584.354 297.562 583.81 298.093C581.279 286.242 576.232 263.52 580.257 259.62C585.411 254.635 599.365 253.307 599.567 254.398C599.771 255.496 598.407 260.286 598.407 260.286Z" fill="#010101"/>
<path d="M588.529 243.918C588.326 244.338 588.221 244.688 588.285 244.919C588.585 246.079 586.991 260.614 587.572 262.11C588.151 263.607 588.487 268.339 588.151 271.332C587.815 274.325 581.588 276.149 581.588 273.576C581.588 270.997 582.336 264.936 582.587 262.608C582.838 260.287 580.511 243.465 581.133 241.137C581.539 239.619 583.098 237.048 584.132 235.447C584.684 234.588 585.09 233.999 585.09 233.999C585.183 235.459 591.299 239.474 591.809 239.474C591.807 239.472 589.347 242.227 588.529 243.918Z" fill="url(#paint6_linear_1884_2875)"/>
<path opacity="0.25" d="M619.662 255.705C616.914 255.503 613.824 254.3 611.67 252.139C609.167 249.636 604.993 247.316 601.26 245.561C602.197 245.778 603.133 246.037 604.015 246.33C608.854 247.938 618.074 249.978 620.06 248.833C620.501 250.372 620.598 252.176 619.662 255.705Z" fill="#010101"/>
<path opacity="0.25" d="M616.794 264.116C614.781 269.297 611.74 276.358 607.258 286.201C607.147 291.201 605.553 323.087 605.12 330.427C605.064 331.323 605.029 331.854 605.015 331.924C604.953 332.245 603.799 332.86 602.541 333.175C602.827 322.422 602.45 299.016 604.268 292.053C606.44 283.719 616.186 265.263 616.794 264.116Z" fill="#010101"/>
<path opacity="0.25" d="M606.02 246.952C605.3 246.742 604.623 246.534 604.015 246.33C600.128 245.03 595.277 244.533 593.464 244.029C593.009 243.903 592.751 243.785 592.736 243.645C592.681 242.959 594.421 241.408 595.239 239.785C596.049 238.163 598.783 229.627 597.973 230.067C597.162 230.5 592.365 239.47 591.805 239.47C591.61 239.47 590.645 238.918 589.498 238.141C589.617 237.939 589.749 237.735 589.896 237.519C592.883 233.115 597.784 227.635 598.615 222.901C599.279 219.413 600.278 221.405 600.109 225.894C599.96 229.922 599.743 242.255 606.02 246.952Z" fill="#010101"/>
<path opacity="0.25" d="M620.087 248.82C620.08 248.827 620.073 248.833 620.058 248.833C619.004 249.442 615.913 249.148 612.516 248.505C618.591 242.416 615.276 225.923 616.228 226.77C617.345 227.763 620.086 229.133 620.086 229.133C620.213 233.62 622.024 247.638 620.087 248.82Z" fill="#010101"/>
<path opacity="0.25" d="M591.807 239.472C591.807 239.472 589.347 242.228 588.529 243.919C588.507 243.547 588.482 243.205 588.445 242.898C588.256 241.116 585.481 237.241 584.131 235.445C584.683 234.586 585.089 233.998 585.089 233.998C585.182 235.459 591.298 239.472 591.807 239.472Z" fill="#010101"/>
<path opacity="0.25" d="M607.671 203.278C606.176 206.585 601.778 206.969 599.932 206.976C599.765 206.535 599.646 206.131 599.568 205.802C602.581 205.585 606.491 204.739 607.503 203.089C607.56 203.153 607.616 203.216 607.671 203.278Z" fill="#010101"/>
<path opacity="0.25" d="M609.055 211.745C608.775 211.963 608.434 212.124 608.007 212.221C606.001 212.676 604.589 212.285 603.827 211.928C603.659 211.418 603.533 211.088 603.533 211.088V211.082C603.611 211.123 603.694 211.158 603.778 211.193C606.176 212.165 607.56 210.845 608.384 209.355H608.392C608.133 209.872 608.825 210.521 609.055 211.745Z" fill="#010101"/>
<path d="M628.936 -46.1956V264.116" stroke="#0A2533" stroke-width="0.9195" stroke-miterlimit="10"/>
<path d="M642.019 227.182C642.005 227.265 641.985 227.349 641.97 227.427C641.146 231.181 638.139 231.58 637.572 231.335C637.007 231.09 635.51 229.37 634.202 223.31C634.174 223.19 634.154 223.071 634.125 222.947C634.125 222.947 631.301 215.704 629.973 212.221C626.695 210.278 626.073 211.068 625.61 208.824C625.156 206.579 626.611 203.678 627.443 203.258C628.275 202.846 632.008 206.335 632.511 207.621C633.007 208.906 642.767 223.196 642.019 227.182Z" fill="url(#paint7_linear_1884_2875)"/>
<path opacity="0.25" d="M641.97 227.427C641.146 231.181 638.139 231.58 637.572 231.335C637.006 231.09 635.51 229.37 634.202 223.31C635.034 224.993 636.314 227.176 637.719 228.077C639.263 229.061 640.998 228.748 641.97 227.427Z" fill="#010101"/>
<path d="M531.893 423.697L523.881 382.779C517.953 352.514 506.522 330.436 489.589 316.536C472.649 302.644 451.726 298.136 426.815 303.015C401.905 307.895 384.239 319.906 373.828 339.039C363.412 358.181 361.175 382.937 367.124 413.308L375.163 454.382C381.071 484.542 392.489 506.57 409.428 520.462C416.579 526.327 424.452 530.521 433.044 533.033C444.796 536.481 457.898 536.78 472.348 533.955C479.836 532.494 486.674 530.375 492.847 527.606C507.135 521.202 517.915 511.324 525.187 497.957C535.605 478.816 537.836 454.059 531.893 423.697ZM481.878 478.62C479.138 487.011 473.342 492.072 464.49 493.806C455.325 495.602 447.878 493.029 442.133 486.081C438.217 481.347 434.869 474.321 432.092 465.002C432.092 464.995 432.092 464.987 432.092 464.987C432.086 464.973 432.086 464.958 432.078 464.938C430.792 460.618 429.632 455.801 428.596 450.495L417.349 393.049C414.714 377.961 414.706 366.314 417.32 358.105C419.936 349.9 425.723 344.913 434.679 343.166C441.51 341.823 447.402 342.978 452.352 346.614H452.36C454.045 347.858 455.623 349.381 457.092 351.2C462.874 358.352 467.348 370.014 470.508 386.17L481.393 441.757C484.458 457.94 484.62 470.223 481.878 478.62Z" fill="#D1D5DB"/>
<path opacity="0.25" d="M485.899 486.296C488.207 489.849 491.274 513.996 492.848 527.608C486.674 530.377 479.836 532.495 472.349 533.956C457.9 536.78 444.798 536.481 433.046 533.035C433.526 531.951 433.967 530.818 434.344 529.657C441.679 507.25 432.513 466.821 432.094 465.002C434.869 474.321 438.218 481.347 442.135 486.081C447.88 493.029 455.327 495.602 464.492 493.806C473.342 492.071 479.139 487.01 481.88 478.62C484.621 470.224 484.459 457.94 481.398 441.756L470.512 386.168C467.352 370.012 462.877 358.35 457.097 351.198C455.628 349.381 454.049 347.858 452.365 346.612C470.046 350.079 484.405 404.821 490.389 431.228C496.366 457.639 496.869 469.853 485.899 486.296Z" fill="#010101"/>
<path d="M435.994 475.743C435.994 475.743 437.141 478.74 443.163 480.401C449.186 482.061 454.834 472.746 458.821 475.743C462.808 478.74 469.189 491.163 474.804 489.271C480.418 487.379 482.079 517.282 479.422 520.605C476.764 523.927 474.852 497.072 467.834 497.875C460.815 498.675 466.131 518.943 462.144 522.598C458.157 526.254 459.819 513.628 455.5 511.301C451.18 508.976 460.152 612.971 453.505 614.632C446.859 616.294 442.541 609.98 445.199 587.72C447.857 565.46 444.533 488.708 440.546 484.721C436.561 480.734 436.811 479.986 435.994 475.743Z" fill="#0D7042"/>
<path d="M434.346 -46.1956V316.6" stroke="#0A2533" stroke-width="0.9195" stroke-miterlimit="10"/>
<path d="M520.599 176.306C520.599 176.306 515.305 161.791 515.74 160.668C516.177 159.548 521.992 157.429 522.419 158.051C522.843 158.675 526.519 169.951 525.895 170.76C525.272 171.57 520.599 176.306 520.599 176.306Z" fill="#262166"/>
<path d="M432.51 157.271C432.51 157.271 435.741 158.611 437.178 162.101C438.614 165.589 438.054 153.006 438.054 153.006L436.497 151.573L432.51 157.271Z" fill="url(#paint8_linear_1884_2875)"/>
<path d="M430.828 157.271C430.828 157.271 434.878 160.293 435.563 160.48C436.248 160.667 437.571 152.755 436.973 151.509C436.372 150.262 434.178 149.017 432.753 149.827C431.327 150.638 430.165 156.782 430.828 157.271Z" fill="url(#paint9_linear_1884_2875)"/>
<path d="M441.607 158.176C441.607 158.176 438.382 150.7 436.973 149.392C435.564 148.085 432.948 149.767 432.76 150.451C432.571 151.135 435.889 151.634 436.973 152.756C438.056 153.879 435.127 162.163 437.932 165.092C440.734 168.019 441.607 158.176 441.607 158.176Z" fill="url(#paint10_linear_1884_2875)"/>
<path d="M516.613 177.986C516.613 177.986 519.478 176.429 520.102 175.618C520.724 174.808 519.603 171.756 521.41 168.953C523.216 166.149 527.079 166.959 528.012 170.323C528.948 173.687 526.519 177.924 525.397 179.231C524.275 180.539 516.613 186.021 516.613 186.021" fill="url(#paint11_linear_1884_2875)"/>
<path d="M518.666 184.486C518.582 184.983 518.071 185.834 517.08 186.996C513.444 191.246 503.426 199.566 485.368 209.075C485.012 210.529 484.732 212.011 484.522 213.493C483.851 218.225 483.864 223.008 484.089 227.307C484.143 228.412 484.213 229.489 484.291 230.523C484.621 235.053 485.068 238.794 484.949 240.961C484.893 241.911 484.726 242.555 484.405 242.84C483.999 243.196 483.572 243.519 483.124 243.806C474.105 249.595 457.689 240.947 455.033 238.345C454.823 238.143 454.697 237.974 454.671 237.856C454.209 236.108 455.998 234.241 456.998 231.248C457.165 230.739 457.334 229.598 457.501 228.04C457.977 223.432 458.389 215.19 458.537 208.988C458.62 205.03 458.599 201.907 458.418 201.081C458.41 201.067 458.41 201.052 458.41 201.052C457.915 199.017 442.791 176.17 438.255 168.074C437.423 166.599 436.949 165.614 436.975 165.334C437.142 163.509 440.63 157.029 441.379 157.113C441.505 157.127 441.967 157.708 442.665 158.672C446.169 163.538 455.592 178.248 457.326 180.121C458.949 181.876 467.204 190.567 470.743 194.292C471.742 195.334 472.364 195.991 472.364 195.991C474.28 195.956 476.201 195.781 478.124 195.482C495.12 192.86 511.821 180.961 516.192 177.653C516.911 177.109 517.297 176.8 517.297 176.8C517.297 176.8 519.043 182.159 518.666 184.486Z" fill="#A6CAB9"/>
<path d="M476.254 203.508C470.457 204.445 470.44 196.902 470.741 194.294C471.741 195.336 472.363 195.993 472.363 195.993C474.279 195.958 476.199 195.783 478.123 195.483C478.844 198.455 478.266 203.187 476.254 203.508Z" fill="#E6F0EB"/>
<path d="M482.122 187.338C480.997 188.016 479.528 188.248 477.655 187.764C476.214 187.401 474.528 186.611 472.563 185.275C472.563 185.275 471.011 187.142 470.886 190.567C466.774 187.016 465.775 183.464 469.263 182.156C467.831 175.927 470.886 174.619 475.989 174.312C481.1 173.997 482.282 179.233 485.336 179.108C485.521 181.9 484.73 185.793 482.122 187.338Z" fill="#262166"/>
<path d="M482.123 187.338C482.066 187.842 481.983 188.421 481.864 189.045C481.178 192.688 479.388 197.77 476.691 197.49C476.551 197.484 476.405 197.456 476.25 197.407C473.824 196.645 472.363 194.289 471.601 192.556C471.098 191.431 470.888 190.57 470.888 190.57C470.929 189.487 471.11 188.556 471.342 187.795C471.838 186.151 472.565 185.278 472.565 185.278C474.53 186.613 476.215 187.404 477.656 187.767C479.528 188.248 480.997 188.017 482.123 187.338Z" fill="url(#paint12_linear_1884_2875)"/>
<path d="M476.691 199.636C476.662 200.958 476.481 201.992 475.601 202.054C473.817 202.18 471.448 199.852 471.574 197.322C471.615 196.462 471.63 195.547 471.63 194.707C471.63 193.86 471.615 193.093 471.602 192.554C472.363 194.288 473.825 196.643 476.25 197.405C476.405 197.454 476.551 197.483 476.691 197.489C476.684 198.225 476.713 198.965 476.691 199.636Z" fill="url(#paint13_linear_1884_2875)"/>
<path d="M518.667 184.486C518.583 184.983 518.072 185.834 517.08 186.996C517.128 184.025 516.478 179.516 516.192 177.655C516.912 177.11 517.298 176.802 517.298 176.802C517.298 176.802 519.044 182.159 518.667 184.486Z" fill="#E6F0EB"/>
<path d="M442.664 158.675C440.009 160.947 438.713 165.898 438.254 168.079C437.422 166.604 436.948 165.618 436.974 165.338C437.141 163.514 440.629 157.034 441.378 157.118C441.505 157.13 441.966 157.709 442.664 158.675Z" fill="#E6F0EB"/>
<path d="M484.29 230.523C478.349 231.382 467.169 232.145 457.5 228.041C457.976 223.433 458.388 215.191 458.536 208.99C463.324 211.017 473.663 214.624 484.523 213.491C483.676 219.443 483.913 225.476 484.29 230.523Z" fill="#E6F0EB"/>
<path opacity="0.25" d="M483.123 243.808C473.404 250.044 455.101 239.522 454.67 237.857C454.207 236.11 455.997 234.242 456.996 231.25C457.164 230.74 457.332 229.6 457.5 228.041C457.976 223.433 458.388 215.191 458.535 208.99C458.619 205.032 458.598 201.908 458.417 201.082C458.626 201.726 461.913 212.142 463.596 222.279C465.343 232.745 464.966 237.731 470.077 241.093C473.068 243.058 478.529 244.093 483.123 243.808Z" fill="#010101"/>
<path d="M505.333 272.576C505.333 276.896 489.714 300.835 486.48 305.748C486.109 306.315 485.899 306.63 485.899 306.63C485.899 306.63 483.885 306.399 482.228 305.839C481.075 305.439 480.09 304.895 480.09 304.141C480.09 303.986 480.119 303.748 480.167 303.434C480.719 300.099 484.151 288.032 488.557 272.079C486.236 269.255 469.954 258.453 469.954 258.453C469.954 258.453 469.947 258.467 469.939 258.494C469.234 260.123 446.632 312.389 444.065 317.263C443.973 317.438 443.909 317.549 443.868 317.599C442.708 319.095 437.891 319.256 437.556 316.103C437.556 316.096 437.556 316.096 437.556 316.089C436.172 302.877 447.567 263.024 452.874 245.401C453.824 242.241 454.579 239.794 455.033 238.347C457.69 240.947 474.106 249.595 483.125 243.807C483.572 243.52 483.999 243.199 484.405 242.842C484.726 242.556 484.894 241.913 484.95 240.962C485.117 241.143 485.294 241.339 485.467 241.549C491.756 248.742 505.333 268.415 505.333 272.576Z" fill="#A6CAB9"/>
<path d="M445.657 324.576C445.035 327.687 428.584 336.909 430.082 331.329C431.298 326.805 435.869 318.913 437.554 316.089C437.554 316.096 437.554 316.096 437.554 316.103C437.89 319.256 442.708 319.097 443.867 317.599C443.908 317.55 443.972 317.439 444.063 317.263C444.902 319.669 446.063 322.562 445.657 324.576Z" fill="#262166"/>
<path d="M491.883 321.834C490.631 322.458 474.439 316.227 474.81 314.109C475.187 311.991 480.164 303.434 480.164 303.434C480.116 303.749 480.087 303.986 480.087 304.141C480.087 305.964 485.896 306.63 485.896 306.63C485.896 306.63 486.106 306.316 486.477 305.748C487.199 312.216 493.051 321.249 491.883 321.834Z" fill="#262166"/>
<path opacity="0.25" d="M467.835 256.669C467.835 256.669 449.892 291.905 443.163 316.089" stroke="#010101" stroke-width="0.4597" stroke-miterlimit="10"/>
<path opacity="0.25" d="M472.069 256.669C472.069 256.669 492.004 269.752 492.754 271.87C493.5 273.989 482.412 303.435 482.412 303.435" stroke="#010101" stroke-width="0.4597" stroke-miterlimit="10"/>
<path opacity="0.25" d="M485.465 241.548C483.271 250.315 470.56 247.932 464.059 246.247C460.277 245.267 455.941 245.232 452.874 245.4C453.824 242.24 454.579 239.793 455.033 238.345C457.69 240.946 474.106 249.594 483.125 243.806C483.572 243.519 483.999 243.198 484.405 242.84C484.726 242.554 484.894 241.911 484.95 240.961C485.116 241.143 485.291 241.339 485.465 241.548Z" fill="#010101"/>
<path opacity="0.25" d="M482.228 305.841C481.075 305.441 480.089 304.897 480.089 304.142C480.089 303.987 480.118 303.75 480.167 303.435C480.719 300.1 484.151 288.034 488.557 272.08C486.236 269.256 469.954 258.455 469.954 258.455C469.954 258.455 471.282 253.973 472.778 253.639C474.273 253.31 491.549 268.173 493.458 271.25C495.141 273.952 483.376 296.017 482.228 305.841Z" fill="#010101"/>
<path opacity="0.25" d="M482.123 187.338C482.067 187.842 481.983 188.421 481.864 189.044C477.509 191.262 473.236 186.269 472.727 186.331C472.433 186.366 471.831 187.122 471.343 187.793C471.839 186.149 472.565 185.276 472.565 185.276C474.53 186.611 476.215 187.402 477.657 187.765C479.529 188.248 480.998 188.016 482.123 187.338Z" fill="#010101"/>
<path opacity="0.25" d="M476.69 199.636C473.816 198.937 472.229 196.056 471.629 194.707C471.629 193.86 471.614 193.093 471.601 192.554C472.362 194.288 473.824 196.643 476.249 197.405C476.404 197.454 476.55 197.483 476.69 197.489C476.683 198.225 476.712 198.965 476.69 199.636Z" fill="#010101"/>
<path opacity="0.25" d="M484.522 213.493C483.852 218.225 483.864 223.008 484.089 227.306C482.956 222.532 481.964 217.399 483.123 214.429C485.121 209.312 485.339 209.075 485.368 209.075C485.01 210.529 484.731 212.01 484.522 213.493Z" fill="#010101"/>
<path d="M344.64 261.166L290.851 251.923L290.767 252.405L171.978 386.147L169.525 419.579L186.563 422.508L216.052 427.577L255.636 434.38L259.398 435.023L256.567 451.515L255.253 459.145L250.925 484.347L285.936 490.366L304.716 493.59L313.188 444.266L336.818 448.32L343.948 406.813L320.318 402.759L344.64 261.166ZM277.491 329.701L266.521 393.516L253.399 391.258L224.699 386.331L240.59 367.363L244.226 363.022L274.526 326.857L278.811 322.006L277.491 329.701Z" fill="#0D7042"/>
<path opacity="0.25" d="M255.636 434.38L216.053 427.577C220.715 412.175 226.533 390.949 224.701 386.329L253.401 391.256C255.239 394.321 256.693 398.534 257.085 404.318C257.783 414.553 256.258 425.005 255.636 434.38Z" fill="#010101"/>
<path d="M226.413 386.627C226.413 386.627 230.729 380.639 240.447 382.509C250.166 384.38 250.914 396.342 246.678 409.549C242.441 422.756 241.445 468.856 243.437 483.807C245.432 498.758 244.185 505.737 239.451 506.234C234.717 506.733 232.473 488.292 235.215 475.335C237.956 462.377 237.707 450.416 233.221 452.409C228.735 454.404 232.473 459.388 230.23 463.872C227.987 468.357 221.259 465.617 221.509 457.143C221.758 448.67 235.306 393.607 226.413 386.627Z" fill="#A6CAB9"/>
<path opacity="0.25" d="M320.318 402.759L343.948 406.813L336.818 448.32L313.188 444.266L304.715 493.59L285.936 490.364L318.942 284.419L344.64 261.166L320.318 402.759Z" fill="#010101"/>
<path d="M304.24 -46.1956V274.801" stroke="#0A2533" stroke-width="0.9195" stroke-miterlimit="10"/>
<path d="M394.695 210.802C400.063 210.802 404.414 206.451 404.414 201.084C404.414 195.716 400.063 191.365 394.695 191.365C389.328 191.365 384.977 195.716 384.977 201.084C384.977 206.451 389.328 210.802 394.695 210.802Z" fill="#A6CAB9"/>
<path d="M732.835 334.307C738.202 334.307 742.554 329.956 742.554 324.588C742.554 319.221 738.202 314.869 732.835 314.869C727.467 314.869 723.116 319.221 723.116 324.588C723.116 329.956 727.467 334.307 732.835 334.307Z" fill="#0D7042"/>
<path d="M224.7 263.35C230.068 263.35 234.419 258.999 234.419 253.631C234.419 248.264 230.068 243.912 224.7 243.912C219.333 243.912 214.981 248.264 214.981 253.631C214.981 258.999 219.333 263.35 224.7 263.35Z" fill="#A6CAB9"/>
<path d="M384.978 560.558C390.345 560.558 394.696 556.207 394.696 550.839C394.696 545.472 390.345 541.12 384.978 541.12C379.61 541.12 375.259 545.472 375.259 550.839C375.259 556.207 379.61 560.558 384.978 560.558Z" fill="#D1D5DB"/>
<path d="M677.279 234.087C679.349 234.087 681.027 232.409 681.027 230.339C681.027 228.269 679.349 226.59 677.279 226.59C675.209 226.59 673.53 228.269 673.53 230.339C673.53 232.409 675.209 234.087 677.279 234.087Z" fill="#A6CAB9"/>
<path d="M390.947 292.456C393.017 292.456 394.695 290.777 394.695 288.707C394.695 286.637 393.017 284.959 390.947 284.959C388.876 284.959 387.198 286.637 387.198 288.707C387.198 290.777 388.876 292.456 390.947 292.456Z" fill="#A6CAB9"/>
<path d="M278.811 241.701C280.881 241.701 282.559 240.023 282.559 237.953C282.559 235.883 280.881 234.204 278.811 234.204C276.741 234.204 275.062 235.883 275.062 237.953C275.062 240.023 276.741 241.701 278.811 241.701Z" fill="#0D7042"/>
</g>
<defs>
<linearGradient id="paint0_linear_1884_2875" x1="618.345" y1="362.272" x2="630.305" y2="553.647" gradientUnits="userSpaceOnUse">
<stop stop-color="#FCAF17"/>
<stop offset="1" stop-color="#F47920"/>
</linearGradient>
<linearGradient id="paint1_linear_1884_2875" x1="165.21" y1="310.486" x2="166.58" y2="297.528" gradientUnits="userSpaceOnUse">
<stop stop-color="#FBC4AF"/>
<stop offset="1" stop-color="#EA8B69"/>
</linearGradient>
<linearGradient id="paint2_linear_1884_2875" x1="182.48" y1="306.152" x2="170.518" y2="307.024" gradientUnits="userSpaceOnUse">
<stop stop-color="#FBC4AF"/>
<stop offset="1" stop-color="#EA8B69"/>
</linearGradient>
<linearGradient id="paint3_linear_1884_2875" x1="166.821" y1="354.975" x2="177.786" y2="315.602" gradientUnits="userSpaceOnUse">
<stop stop-color="#FBC4AF"/>
<stop offset="1" stop-color="#EA8B69"/>
</linearGradient>
<linearGradient id="paint4_linear_1884_2875" x1="604.288" y1="210.619" x2="604.786" y2="199.22" gradientUnits="userSpaceOnUse">
<stop stop-color="#FBC4AF"/>
<stop offset="1" stop-color="#EA8B69"/>
</linearGradient>
<linearGradient id="paint5_linear_1884_2875" x1="606.5" y1="215.468" x2="606.127" y2="207.37" gradientUnits="userSpaceOnUse">
<stop stop-color="#FBC4AF"/>
<stop offset="1" stop-color="#EA8B69"/>
</linearGradient>
<linearGradient id="paint6_linear_1884_2875" x1="581.506" y1="276.601" x2="590.477" y2="218.29" gradientUnits="userSpaceOnUse">
<stop stop-color="#FBC4AF"/>
<stop offset="1" stop-color="#EA8B69"/>
</linearGradient>
<linearGradient id="paint7_linear_1884_2875" x1="631.695" y1="206.269" x2="638.672" y2="243.065" gradientUnits="userSpaceOnUse">
<stop stop-color="#FBC4AF"/>
<stop offset="1" stop-color="#EA8B69"/>
</linearGradient>
<linearGradient id="paint8_linear_1884_2875" x1="433.801" y1="151.989" x2="438.164" y2="161.259" gradientUnits="userSpaceOnUse">
<stop stop-color="#FBC4AF"/>
<stop offset="1" stop-color="#EA8B69"/>
</linearGradient>
<linearGradient id="paint9_linear_1884_2875" x1="427.187" y1="151.759" x2="438.026" y2="156.307" gradientUnits="userSpaceOnUse">
<stop stop-color="#FBC4AF"/>
<stop offset="1" stop-color="#EA8B69"/>
</linearGradient>
<linearGradient id="paint10_linear_1884_2875" x1="433.408" y1="148.27" x2="440.385" y2="163.097" gradientUnits="userSpaceOnUse">
<stop stop-color="#FBC4AF"/>
<stop offset="1" stop-color="#EA8B69"/>
</linearGradient>
<linearGradient id="paint11_linear_1884_2875" x1="532.76" y1="162.944" x2="512.951" y2="186.491" gradientUnits="userSpaceOnUse">
<stop stop-color="#FBC4AF"/>
<stop offset="1" stop-color="#EA8B69"/>
</linearGradient>
<linearGradient id="paint12_linear_1884_2875" x1="477.355" y1="198.838" x2="475.237" y2="174.167" gradientUnits="userSpaceOnUse">
<stop stop-color="#FBC4AF"/>
<stop offset="1" stop-color="#EA8B69"/>
</linearGradient>
<linearGradient id="paint13_linear_1884_2875" x1="473.733" y1="199.029" x2="474.729" y2="192.675" gradientUnits="userSpaceOnUse">
<stop stop-color="#FBC4AF"/>
<stop offset="1" stop-color="#EA8B69"/>
</linearGradient>
<clipPath id="clip0_1884_2875">
<rect width="900" height="639.868" fill="white"/>
</clipPath>
</defs>
</svg>
