<svg width="456" height="452" viewBox="0 0 456 452" fill="none" xmlns="http://www.w3.org/2000/svg">
<circle cx="228" cy="208.002" r="158.565" fill="#CCE1D7"/>
<circle cx="228" cy="208.002" r="123.935" fill="#80B49C"/>
<path d="M223.357 364.323C208.799 379.203 188.494 388.438 166.032 388.438C139.222 388.438 115.484 375.281 100.924 355.072C93.7363 374.549 75.0061 388.438 53.0323 388.438C24.8479 388.438 2 365.59 2 337.405C2 309.221 24.8479 286.373 53.0323 286.373C65.7851 286.373 77.4454 291.051 86.3908 298.784C91.0716 258.953 124.943 228.05 166.032 228.05C193.717 228.05 218.125 242.079 232.535 263.415C244.534 253.829 259.747 248.099 276.298 248.099C306.838 248.099 332.821 267.609 342.463 294.845C349.814 290.615 358.338 288.196 367.427 288.196C394.111 288.196 415.925 309.048 417.462 335.346C420.337 334.319 423.434 333.76 426.661 333.76C441.76 333.76 454 346 454 361.099C454 376.198 441.76 388.438 426.661 388.438C416.247 388.438 407.193 382.614 402.577 374.046C393.531 382.947 381.12 388.438 367.427 388.438C350.536 388.438 335.596 380.082 326.516 367.278C313.773 380.333 295.982 388.438 276.298 388.438C255.169 388.438 236.221 379.099 223.357 364.323Z" fill="white"/>
<path d="M2 337.405C2 309.221 24.8479 286.373 53.0323 286.373C65.7851 286.373 77.4454 291.051 86.3908 298.784C91.0716 258.953 124.943 228.05 166.032 228.05C193.717 228.05 218.125 242.079 232.535 263.415C244.534 253.829 259.747 248.099 276.298 248.099C306.838 248.099 332.821 267.609 342.463 294.845C349.814 290.615 358.338 288.196 367.427 288.196C394.111 288.196 415.925 309.048 417.462 335.346C420.337 334.319 423.434 333.76 426.661 333.76C441.76 333.76 454 346 454 361.099" stroke="#006838" stroke-width="2.06618" stroke-linecap="round"/>
<path d="M308.487 359.894C309.199 360.606 310.353 360.606 311.064 359.894L320.417 350.541C320.45 350.509 320.499 350.423 320.556 350.313C320.831 349.783 320.951 349.178 320.951 348.581L320.951 129.631L136.871 129.631L136.871 347.67L136.871 348.581C136.871 349.492 137.292 350.425 137.407 350.541L146.76 359.894C147.472 360.606 148.626 360.606 149.338 359.894L158.157 351.075L166.976 359.894C167.688 360.606 168.842 360.606 169.554 359.894L178.373 351.075L187.192 359.894C187.904 360.606 189.058 360.606 189.77 359.894L198.589 351.075L207.408 359.894C208.12 360.606 209.274 360.606 209.985 359.894L218.804 351.075L227.624 359.894C228.335 360.606 229.489 360.606 230.201 359.894L239.02 351.075L247.839 359.894C248.551 360.606 249.705 360.606 250.417 359.894L259.236 351.075L268.055 359.894C268.767 360.606 269.921 360.606 270.633 359.894L279.452 351.075L288.271 359.894C288.983 360.606 290.137 360.606 290.849 359.894L299.668 351.075L308.487 359.894Z" fill="white" stroke="#0C2B42" stroke-width="1.54963"/>
<path fill-rule="evenodd" clip-rule="evenodd" d="M204.307 235.341C208.333 235.341 211.597 232.077 211.597 228.05C211.597 224.024 208.333 220.76 204.307 220.76C200.281 220.76 197.017 224.024 197.017 228.05C197.017 232.077 200.281 235.341 204.307 235.341ZM253.517 235.341C257.543 235.341 260.807 232.077 260.807 228.05C260.807 224.024 257.543 220.76 253.517 220.76C249.49 220.76 246.226 224.024 246.226 228.05C246.226 232.077 249.49 235.341 253.517 235.341Z" fill="#0D7042"/>
<path d="M258.984 274.88C252.414 265.31 241.396 259.034 228.911 259.034C216.427 259.034 205.408 265.31 198.839 274.88" stroke="#0D7042" stroke-width="2.58272" stroke-linecap="round"/>
<circle cx="169.678" cy="102.292" r="5.46774" stroke="#0C2B42" stroke-width="1.54963"/>
<circle cx="373.806" cy="273.615" r="3.64516" stroke="#0C2B42" stroke-width="1.54963"/>
<path d="M169.678 162.438H251.694M169.678 181.575H218.887" stroke="#ABC0DC" stroke-width="1.54963" stroke-linecap="round"/>
<path d="M155.097 328.292H302.726M155.097 310.067H243.674" stroke="#ABC0DC" stroke-width="1.54963" stroke-linecap="round"/>
<circle cx="88.5727" cy="245.365" r="8.20161" stroke="#0C2B42" stroke-width="1.54963"/>
<path d="M335.595 131.454H353.758M322.774 115.73V100.47" stroke="#6E7191" stroke-width="1.54963" stroke-linecap="round"/>
<path d="M334.527 118.961L346.609 106.88" stroke="#6E7191" stroke-width="1.54963" stroke-linecap="round"/>
<ellipse cx="228.911" cy="396.639" rx="92.0403" ry="8.20161" fill="#A6CAB9"/>
</svg>
