<svg width="52" height="48" viewBox="0 0 52 48" fill="none" xmlns="http://www.w3.org/2000/svg">
<rect width="52" height="48" rx="8" fill="#D9D9D9" fill-opacity="0.22"/>
<path d="M17.6667 17.8333C17.6667 17.3666 17.6667 17.1333 17.7576 16.955C17.8375 16.7982 17.965 16.6707 18.1218 16.5908C18.3 16.5 18.5334 16.5 19.0001 16.5H33.0001C33.4668 16.5 33.7001 16.5 33.8784 16.5908C34.0352 16.6707 34.1627 16.7982 34.2426 16.955C34.3334 17.1333 34.3334 17.3666 34.3334 17.8333V18.3912C34.3334 18.6152 34.3334 18.7272 34.306 18.8313C34.2818 18.9236 34.2419 19.011 34.188 19.0898C34.1272 19.1787 34.0426 19.252 33.8733 19.3987L28.5435 24.0179C28.3742 24.1646 28.2896 24.238 28.2288 24.3269C28.175 24.4056 28.135 24.4931 28.1108 24.5854C28.0834 24.6895 28.0834 24.8015 28.0834 25.0255V29.382C28.0834 29.5449 28.0834 29.6264 28.0571 29.6969C28.0339 29.7591 27.9961 29.8149 27.947 29.8596C27.8913 29.9102 27.8157 29.9404 27.6643 30.001L24.831 31.1343C24.5247 31.2568 24.3716 31.3181 24.2486 31.2925C24.1411 31.2702 24.0468 31.2063 23.9861 31.1148C23.9167 31.0101 23.9167 30.8452 23.9167 30.5153V25.0255C23.9167 24.8015 23.9167 24.6895 23.8894 24.5854C23.8651 24.4931 23.8252 24.4056 23.7713 24.3269C23.7106 24.238 23.6259 24.1646 23.4567 24.0179L18.1268 19.3987C17.9576 19.252 17.8729 19.1787 17.8122 19.0898C17.7583 19.011 17.7184 18.9236 17.6941 18.8313C17.6667 18.7272 17.6667 18.6152 17.6667 18.3912V17.8333Z" stroke="#006838" stroke-width="2" stroke-linecap="round" stroke-linejoin="round"/>
</svg>
