<svg width="20" height="21" viewBox="0 0 20 21" fill="none" xmlns="http://www.w3.org/2000/svg">
<path d="M13.3333 5.66732V5.00065C13.3333 4.06723 13.3333 3.60052 13.1517 3.244C12.9919 2.9304 12.7369 2.67543 12.4233 2.51564C12.0668 2.33398 11.6001 2.33398 10.6667 2.33398H9.33333C8.39991 2.33398 7.9332 2.33398 7.57668 2.51564C7.26308 2.67543 7.00811 2.9304 6.84832 3.244C6.66667 3.60052 6.66667 4.06723 6.66667 5.00065V5.66732M8.33333 10.2507V14.4173M11.6667 10.2507V14.4173M2.5 5.66732H17.5M15.8333 5.66732V15.0007C15.8333 16.4008 15.8333 17.1008 15.5608 17.6356C15.3212 18.106 14.9387 18.4885 14.4683 18.7282C13.9335 19.0007 13.2335 19.0007 11.8333 19.0007H8.16667C6.76654 19.0007 6.06647 19.0007 5.53169 18.7282C5.06129 18.4885 4.67883 18.106 4.43915 17.6356C4.16667 17.1008 4.16667 16.4008 4.16667 15.0007V5.66732" stroke="#B40F07" stroke-width="1.66667" stroke-linecap="round" stroke-linejoin="round"/>
</svg>
