<svg width="38" height="39" viewBox="0 0 38 39" fill="none" xmlns="http://www.w3.org/2000/svg">
<path d="M21 5.66699H5C3.93913 5.66699 2.92172 6.08842 2.17157 6.83856C1.42143 7.58871 1 8.60613 1 9.66699V29.667M1 29.667V33.667C1 34.7279 1.42143 35.7453 2.17157 36.4954C2.92172 37.2456 3.93913 37.667 5 37.667H29C30.0609 37.667 31.0783 37.2456 31.8284 36.4954C32.5786 35.7453 33 34.7279 33 33.667V25.667M1 29.667L10.172 20.495C10.9221 19.7451 11.9393 19.3238 13 19.3238C14.0607 19.3238 15.0779 19.7451 15.828 20.495L21 25.667M33 17.667V25.667M33 25.667L29.828 22.495C29.0779 21.7451 28.0607 21.3238 27 21.3238C25.9393 21.3238 24.9221 21.7451 24.172 22.495L21 25.667M21 25.667L25 29.667M29 5.66699H37M33 1.66699V9.66699M21 13.667H21.02" stroke="#9CA3AF" stroke-width="2" stroke-linecap="round" stroke-linejoin="round"/>
</svg>
