<svg width="54" height="54" viewBox="0 0 54 54" fill="none" xmlns="http://www.w3.org/2000/svg">
<path d="M51 32.8785C43.5886 35.8786 35.4872 37.5306 27 37.5306C18.5128 37.5306 10.4115 35.8786 3 32.8785M37.6667 13.5307V8.19735C37.6667 5.25183 35.2789 2.86401 32.3333 2.86401H21.6667C18.7211 2.86401 16.3333 5.25183 16.3333 8.19735V13.5307M27 29.5307H27.0267M8.33333 50.864H45.6667C48.6122 50.864 51 48.4762 51 45.5307V18.864C51 15.9185 48.6122 13.5307 45.6667 13.5307H8.33333C5.38781 13.5307 3 15.9185 3 18.864V45.5307C3 48.4762 5.38781 50.864 8.33333 50.864Z" stroke="#006838" stroke-width="4.5" stroke-linecap="round" stroke-linejoin="round"/>
</svg>
