<svg width="64" height="65" viewBox="0 0 64 65" fill="none" xmlns="http://www.w3.org/2000/svg">
<path d="M48 19.624C47.84 19.5974 47.6533 19.5974 47.4933 19.624C43.8133 19.4907 40.88 16.4774 40.88 12.744C40.88 8.93069 43.9467 5.86401 47.76 5.86401C51.5733 5.86401 54.64 8.95735 54.64 12.744C54.6133 16.4774 51.68 19.4907 48 19.624Z" stroke="#006838" stroke-width="4.5" stroke-linecap="round" stroke-linejoin="round"/>
<path d="M45.2533 39.0373C48.9067 39.6506 52.9333 39.0106 55.76 37.1173C59.52 34.6106 59.52 30.504 55.76 27.9973C52.9067 26.104 48.8267 25.4639 45.1733 26.1039" stroke="#006838" stroke-width="4.5" stroke-linecap="round" stroke-linejoin="round"/>
<path d="M15.92 19.624C16.08 19.5974 16.2667 19.5974 16.4267 19.624C20.1067 19.4907 23.04 16.4774 23.04 12.744C23.04 8.93069 19.9733 5.86401 16.16 5.86401C12.3467 5.86401 9.28 8.95735 9.28 12.744C9.30667 16.4774 12.24 19.4907 15.92 19.624Z" stroke="#006838" stroke-width="4.5" stroke-linecap="round" stroke-linejoin="round"/>
<path d="M18.6667 39.0373C15.0133 39.6506 10.9867 39.0106 8.16 37.1173C4.4 34.6106 4.4 30.504 8.16 27.9973C11.0133 26.104 15.0933 25.4639 18.7467 26.1039" stroke="#006838" stroke-width="4.5" stroke-linecap="round" stroke-linejoin="round"/>
<path d="M32 39.5442C31.84 39.5175 31.6533 39.5175 31.4933 39.5442C27.8133 39.4109 24.88 36.3975 24.88 32.6642C24.88 28.8509 27.9467 25.7842 31.76 25.7842C35.5733 25.7842 38.64 28.8775 38.64 32.6642C38.6133 36.3975 35.68 39.4375 32 39.5442Z" stroke="#006838" stroke-width="4.5" stroke-linecap="round" stroke-linejoin="round"/>
<path d="M24.24 47.9442C20.48 50.4509 20.48 54.5575 24.24 57.0642C28.5067 59.9175 35.4933 59.9175 39.76 57.0642C43.52 54.5575 43.52 50.4509 39.76 47.9442C35.52 45.1176 28.5067 45.1176 24.24 47.9442Z" stroke="#006838" stroke-width="4.5" stroke-linecap="round" stroke-linejoin="round"/>
</svg>
