<svg width="64" height="65" viewBox="0 0 64 65" fill="none" xmlns="http://www.w3.org/2000/svg">
<path d="M32.4266 29.5173C32.16 29.4907 31.84 29.4907 31.5466 29.5173C25.2 29.304 20.16 24.104 20.16 17.704C20.16 11.1707 25.44 5.86401 32 5.86401C38.5333 5.86401 43.84 11.1707 43.84 17.704C43.8133 24.104 38.7733 29.304 32.4266 29.5173Z" stroke="#006838" stroke-width="4.5" stroke-linecap="round" stroke-linejoin="round"/>
<path d="M19.0934 39.3575C12.64 43.6775 12.64 50.7175 19.0934 55.0108C26.4267 59.9175 38.4534 59.9175 45.7867 55.0108C52.24 50.6908 52.24 43.6508 45.7867 39.3575C38.48 34.4775 26.4534 34.4775 19.0934 39.3575Z" stroke="#006838" stroke-width="4.5" stroke-linecap="round" stroke-linejoin="round"/>
</svg>
